<svg width="184" height="303" viewBox="0 0 184 303" fill="none" xmlns="http://www.w3.org/2000/svg">
<path d="M160.626 301.513C165.991 299.725 169.057 297.937 172.953 294.36C184.065 284.205 186.939 269.133 180.361 255.401L177.743 249.973L128.373 200.667L79.0678 151.298L127.351 103.078C176.082 54.4752 179.403 50.8348 181.958 44.001C184.193 37.8698 184.385 28.8006 182.341 22.4778C179.914 15.133 173.591 7.27737 167.204 3.89241C161.073 0.635187 156.858 -0.258954 149.513 0.060382C142.488 0.379718 138.273 1.65706 132.78 5.10589C129.076 7.46898 7.47263 129.2 4.79021 133.351C0.958176 139.099 0.000167896 142.548 0.000167896 151.298C0.000167896 160.048 0.958176 163.56 4.72634 169.181C7.15329 172.821 129.459 295.191 133.036 297.554C138.337 301.066 142.36 302.216 150.088 302.471C155.581 302.599 157.88 302.408 160.626 301.513Z" fill="#969696"/>
</svg>
