<svg width="184" height="303" viewBox="0 0 184 303" fill="none" xmlns="http://www.w3.org/2000/svg">
<path d="M23.2215 0.993603C17.8567 2.78188 14.791 4.57017 10.8951 8.14673C-0.217757 18.3016 -3.09178 33.3743 3.48654 47.1057L6.10509 52.5344L55.4744 101.84L104.78 151.209L56.4963 199.429C7.76564 248.032 4.44455 251.672 1.88986 258.506C-0.345492 264.637 -0.537093 273.706 1.50666 280.029C3.93361 287.374 10.2565 295.23 16.6432 298.615C22.7744 301.872 26.9897 302.766 34.3344 302.447C41.3598 302.127 45.575 300.85 51.0676 297.401C54.7719 295.038 176.375 173.307 179.057 169.156C182.889 163.408 183.847 159.959 183.847 151.209C183.847 142.459 182.889 138.947 179.121 133.326C176.694 129.686 54.3887 7.31645 50.8121 4.95337C45.5111 1.44067 41.4875 0.291064 33.7596 0.0355957C28.267 -0.0921387 25.9678 0.0994629 23.2215 0.993603Z" fill="#969696"/>
</svg>
