<svg width="18" height="20" viewBox="0 0 18 20" fill="none" xmlns="http://www.w3.org/2000/svg">
<path d="M5.00668 0.182087C4.74069 0.344387 4.68208 0.502179 4.68208 1.04769V1.53459H3.9923C3.20335 1.53459 2.9103 1.57967 2.4234 1.76451C1.09345 2.27395 0.254897 3.45063 0.133172 4.96092C-0.0291279 6.9536 -0.0471613 12.7288 0.101614 14.9965C0.178255 16.1912 0.227847 16.4391 0.534414 17.0703C0.971722 17.9765 1.84634 18.6888 2.82915 18.9413C3.56852 19.1306 6.27352 19.2253 9.92527 19.1937C13.0946 19.1622 14.623 19.09 15.2045 18.9413C16.4083 18.6257 17.4497 17.5843 17.7608 16.3715C17.9366 15.6953 17.9997 14.1309 17.9997 10.2808C18.0042 6.8454 17.9591 5.23142 17.8374 4.51009C17.6345 3.28382 16.7599 2.21084 15.5968 1.76451C15.1099 1.57967 14.8168 1.53459 14.0279 1.53459H13.3381V1.04769C13.3381 0.502179 13.2795 0.344387 13.0135 0.182087C12.8106 0.0603615 12.4229 0.0603615 12.22 0.182087C11.954 0.344387 11.8954 0.502179 11.8954 1.04769V1.53459H9.01008H6.12475V1.04769C6.12475 0.646446 6.11122 0.542753 6.03458 0.41652C5.89933 0.20012 5.69645 0.0919199 5.40341 0.0919199C5.2366 0.0919199 5.10586 0.11897 5.00668 0.182087ZM4.68208 3.45965C4.68208 4.00966 4.74069 4.16745 5.00668 4.32975C5.20955 4.45148 5.59727 4.45148 5.80015 4.32975C6.06614 4.16745 6.12475 4.00966 6.12475 3.45965V2.97725H9.01008H11.8954V3.45965C11.8954 3.8654 11.9089 3.96909 11.9856 4.09532C12.1208 4.31172 12.3237 4.41992 12.6167 4.41992C12.9098 4.41992 13.1127 4.31172 13.2479 4.09532C13.3246 3.96909 13.3381 3.8654 13.3381 3.45514V2.96373L13.9828 2.99078C14.3705 3.00881 14.7221 3.04939 14.8709 3.08996C15.4119 3.25677 15.9168 3.67605 16.1693 4.17647C16.3361 4.51009 16.3902 4.76706 16.4263 5.37569L16.4533 5.86259H9.01008H1.56682L1.59387 5.35315C1.63896 4.57771 1.78773 4.15393 2.15741 3.73015C2.63981 3.18013 3.15375 2.99529 4.22223 2.98176L4.68208 2.97725V3.45965ZM16.5165 7.5983C16.5615 8.02659 16.5119 13.6169 16.4533 14.6538C16.3902 15.7494 16.3496 15.9928 16.1783 16.3535C15.9123 16.9215 15.2541 17.431 14.6455 17.5347C13.2344 17.7781 4.77675 17.7781 3.38368 17.5392C2.54964 17.3949 1.79675 16.633 1.6615 15.799C1.56682 15.2219 1.51723 13.6891 1.49469 10.8578C1.48116 9.23031 1.48567 7.7606 1.50371 7.5983L1.53526 7.30525H9.01008H16.4849L16.5165 7.5983Z" fill="#4D4D4D"/>
<path d="M4.93016 9.5549C4.53793 9.73523 4.32153 10.0959 4.32153 10.5603C4.32604 11.2004 4.75884 11.6332 5.40353 11.6332C6.05273 11.6332 6.48553 11.2004 6.48553 10.5512C6.48553 10.0824 6.24659 9.70818 5.84535 9.54137C5.61092 9.44219 5.15557 9.45121 4.93016 9.5549Z" fill="#4D4D4D"/>
<path d="M8.53685 9.5549C8.14462 9.73523 7.92822 10.0959 7.92822 10.5603C7.93273 11.2004 8.36553 11.6332 9.01022 11.6332C9.65942 11.6332 10.0922 11.2004 10.0922 10.5512C10.0922 10.0824 9.85328 9.70818 9.45204 9.54137C9.21761 9.44219 8.76226 9.45121 8.53685 9.5549Z" fill="#4D4D4D"/>
<path d="M12.1433 9.5549C11.7511 9.73523 11.5347 10.0959 11.5347 10.5603C11.5392 11.2004 11.972 11.6332 12.6167 11.6332C13.2659 11.6332 13.6987 11.2004 13.6987 10.5512C13.6987 10.0824 13.4597 9.70818 13.0585 9.54137C12.8241 9.44219 12.3687 9.45121 12.1433 9.5549Z" fill="#4D4D4D"/>
<path d="M4.93016 13.1616C4.53793 13.3419 4.32153 13.7026 4.32153 14.1669C4.32604 14.8071 4.75884 15.2399 5.40353 15.2399C6.05273 15.2399 6.48553 14.8071 6.48553 14.1579C6.48553 13.6891 6.24659 13.3149 5.84535 13.1481C5.61092 13.0489 5.15557 13.0579 4.93016 13.1616Z" fill="#4D4D4D"/>
<path d="M8.53685 13.1616C8.14462 13.3419 7.92822 13.7026 7.92822 14.1669C7.93273 14.8071 8.36553 15.2399 9.01022 15.2399C9.65942 15.2399 10.0922 14.8071 10.0922 14.1579C10.0922 13.6891 9.85328 13.3149 9.45204 13.1481C9.21761 13.0489 8.76226 13.0579 8.53685 13.1616Z" fill="#4D4D4D"/>
<path d="M12.1433 13.1616C11.7511 13.3419 11.5347 13.7026 11.5347 14.1669C11.5392 14.8071 11.972 15.2399 12.6167 15.2399C13.2659 15.2399 13.6987 14.8071 13.6987 14.1579C13.6987 13.6891 13.4597 13.3149 13.0585 13.1481C12.8241 13.0489 12.3687 13.0579 12.1433 13.1616Z" fill="#4D4D4D"/>
</svg>
