<svg width="223" height="173" viewBox="0 0 223 173" fill="none" xmlns="http://www.w3.org/2000/svg">
<path d="M36.373 1.41992C29.291 2.47266 18.668 7.44922 18.668 9.74609C18.668 11.7559 87.5742 80.5664 92.3594 83.4375C103.461 89.8496 119.539 89.8496 130.641 83.4375C135.426 80.5664 204.332 11.7559 204.332 9.74609C204.332 7.35352 193.613 2.47266 185.67 1.32422C177.439 0.175781 44.5078 0.271484 36.373 1.41992Z" fill="#C1C1C1"/>
<path d="M4.3125 26.5898C3.25977 28.8867 2.01562 33.6719 1.44141 37.3086C0.292969 45.7305 0.292969 125.834 1.44141 135.309C3.92969 154.449 18.668 169.188 37.8086 171.676C47.1875 172.824 175.812 172.824 185.191 171.676C204.332 169.188 219.07 154.449 221.559 135.309C222.707 125.834 222.707 45.7305 221.559 37.3086C220.41 29.9395 217.539 22.3789 215.625 22.3789C215.051 22.3789 198.111 38.6484 178.014 58.5547C138.775 97.5059 137.723 98.3672 124.324 101.812C114.945 104.205 108.055 104.205 98.6758 101.812C85.373 98.4629 83.3633 96.8359 44.5078 58.0762C24.6973 38.457 8.04492 22.3789 7.375 22.3789C6.70508 22.3789 5.26953 24.293 4.3125 26.5898Z" fill="#C1C1C1"/>
</svg>
