<svg width="235" height="251" viewBox="0 0 235 251" fill="none" xmlns="http://www.w3.org/2000/svg">
<path d="M44.3571 1.56874C40.1411 3.62772 23.8653 17.6484 18.7669 23.6293C8.56998 35.591 2.49107 50.1019 0.628181 67.064C-3.68588 105.302 20.3356 153.639 66.5157 200.114C86.6153 220.311 101.322 231.391 119.755 240.215C135.345 247.764 144.953 250.216 160.641 250.706C186.329 251.588 200.448 246.098 221.43 227.273C229.175 220.311 232.411 216.684 233.686 213.546C237.902 202.859 231.823 193.545 207.703 173.641C196.722 164.523 189.172 160.699 180.838 160.111C172.014 159.326 166.818 162.071 153.973 174.033C148.385 179.23 142.796 183.838 141.423 184.328C136.619 186.191 130.05 185.407 123.579 182.367C115.343 178.445 108.186 172.759 96.8122 161.189C70.6337 134.226 57.9856 110.695 62.986 98.5371C65.045 93.7328 66.6137 91.968 72.9868 87.1637C99.1653 67.7504 100.244 55.8867 79.2618 23.6293C67.3001 5.29452 61.3192 -9.45382e-06 52.3969 -9.45382e-06C49.6516 -9.45382e-06 46.0239 0.686319 44.3571 1.56874Z" fill="#C1C1C1"/>
</svg>
