<svg width="378" height="322" viewBox="0 0 378 322" fill="none" xmlns="http://www.w3.org/2000/svg">
<path d="M91.2364 0.891837C72.7305 3.70473 58.0739 11.6993 44.7497 26.2079C22.3946 50.3395 18.2493 85.8707 33.9422 119.773C40.7524 134.134 44.0094 139.316 72.1383 177.068L96.27 209.638H102.636H109.002L130.913 180.325C158.894 143.017 164.372 135.022 171.33 120.218C182.285 96.6782 184.062 72.8426 176.511 51.968C163.779 16.7329 127.952 -4.73394 91.2364 0.891837ZM113.74 44.1215C121.29 46.3422 132.393 56.2614 135.799 63.8118C139.056 70.918 139.5 84.8344 136.539 91.7926C131.653 103.636 119.217 112.815 106.189 114.444C81.9094 117.257 61.1829 92.3848 68.1411 68.6973C73.9149 49.0071 94.0493 38.1997 113.74 44.1215Z" fill="#C1C1C1"/>
<path d="M93.7532 66.0325C88.1274 70.4739 86.0547 77.8762 88.8676 84.2422C95.2336 99.7872 117.737 95.4938 117.885 78.9125C117.885 71.6582 115.96 68.1051 110.482 65.2922C104.561 62.1833 98.3426 62.4793 93.7532 66.0325Z" fill="#C1C1C1"/>
<path d="M330.332 96.2339C313.603 101.564 303.536 109.854 291.84 127.62C280.144 145.237 270.669 153.972 253.348 162.707C247.574 165.52 227.588 172.626 225.219 172.626C224.923 172.626 223.59 168.185 222.258 162.559C220.777 157.081 219.001 152.048 218.409 151.307C216.78 149.531 190.428 158.562 175.475 166.112L162.447 172.626L140.98 201.495L119.365 230.364H102.784H86.0548L71.2501 210.23C63.1075 199.127 56.0013 189.8 55.4091 189.503C53.9286 188.615 44.1575 193.945 39.272 198.09C29.2048 206.825 22.0985 225.923 23.727 239.987L24.4673 247.39L11.8833 255.532C2.85243 261.454 -0.404605 264.415 0.0395359 266.192C0.33563 267.524 6.99774 280.404 14.9923 294.617L29.2048 320.673H37.4954H45.9341L56.4454 309.569C70.0657 295.357 81.9095 289.435 98.6388 288.399C116.7 287.362 128.692 291.656 145.718 305.276C166.888 322.45 186.134 325.41 212.191 315.936C219.297 313.271 224.331 312.678 242.244 312.53C261.342 312.382 264.451 311.938 270.817 308.829C274.667 307.053 280.44 302.463 283.401 298.762C298.65 280.256 302.203 278.776 312.863 286.474L318.636 290.619L326.779 286.474C331.072 284.253 335.958 282.329 337.29 282.181C339.955 282.181 342.028 289.583 343.804 305.128L344.841 313.271H356.684H368.528L367.492 302.759C365.863 287.214 362.014 273.89 351.355 247.39L341.732 223.702L334.181 222.962L326.631 222.222L330.332 215.116C332.553 211.118 335.514 201.939 337.142 194.537C339.955 181.509 342.916 173.662 345.729 172.034C346.469 171.59 349.282 176.327 351.799 182.545C354.464 188.911 356.833 194.537 357.129 195.129C358.165 196.758 377.707 188.023 378.003 185.802C378.151 184.618 370.157 163.743 360.238 139.316C340.399 90.7562 341.732 92.5328 330.332 96.2339Z" fill="#C1C1C1"/>
</svg>
