<svg width="364" height="416" viewBox="0 0 364 416" fill="none" xmlns="http://www.w3.org/2000/svg">
<path d="M289.858 1.89987C268.733 10.1874 257.52 26.9249 257.683 49.5124C257.683 59.4249 262.07 72.2624 267.27 77.9499C269.545 80.5499 267.758 83.6374 244.358 116.625C230.383 136.45 218.52 152.537 218.195 152.537C217.708 152.537 212.833 151.075 207.308 149.125C188.62 142.787 165.545 146.85 148.808 159.687C145.72 161.962 142.795 163.912 142.145 163.912C141.658 163.912 126.545 152.537 108.508 138.562L76.0075 113.212L77.3075 108.175C80.8825 94.1999 76.3325 77.6249 66.745 68.3624C54.8825 57.3124 34.57 54.8749 20.1075 62.8374C10.195 68.1999 2.07003 79.5749 0.445025 90.1374C-4.10498 121.012 27.095 145.55 54.72 133.037L61.87 129.787L94.5325 155.3C112.57 169.275 128.008 181.137 128.658 181.95C129.47 182.6 128.82 188.45 127.195 194.95C124.758 205.025 124.595 208.275 126.22 217.862C128.333 229.887 133.533 241.587 140.358 249.712C142.958 252.8 144.095 255.725 143.445 256.862C140.195 262.387 105.095 311.787 104.283 311.787C103.795 311.787 99.4075 310.65 94.37 309.187C69.8325 302.037 43.67 313.737 32.1325 336.975C28.8825 343.637 28.2325 347.537 28.2325 358.912C28.2325 370.775 28.8825 374.025 32.7825 381.987C48.3825 413.837 90.9575 420.825 116.145 395.637C132.07 379.55 135.97 355.987 125.895 335.512L121.508 326.412L142.145 297L162.945 267.75L168.795 269.05C175.945 270.675 200.645 270.837 206.333 269.212C210.395 268.075 211.695 269.537 236.07 305.45L261.42 342.987L257.033 350.3C251.345 360.05 250.045 376.787 254.108 387.675C260.445 404.412 276.858 415.787 294.57 415.787C307.733 415.787 315.533 413.025 324.308 405.387C355.02 378.412 336.17 328.037 295.383 328.037C291.158 328.037 285.795 328.687 283.683 329.5C279.783 330.962 278.645 329.5 255.083 294.725C241.595 274.737 230.545 258 230.545 257.35C230.545 256.7 232.82 253.612 235.583 250.525C238.183 247.437 242.408 240.937 244.683 236.225L248.908 227.775L263.695 230.7C271.82 232.487 280.108 234.112 281.895 234.6C284.495 235.087 285.633 237.037 286.445 241.75C288.72 256.375 307.083 271.162 322.845 271.162C335.033 271.162 342.833 267.912 351.77 258.975C363.308 247.437 366.558 233.95 361.358 219C355.508 202.75 341.695 193.162 324.145 193.162C311.47 193.325 302.858 197.225 294.733 206.487L288.395 213.8L273.77 210.712C265.645 209.087 257.358 207.462 255.408 206.975C252.645 206.325 251.508 204.212 250.208 197.55C248.42 189.262 242.733 176.1 238.02 169.6C235.908 166.512 237.533 163.75 261.095 130.275L286.608 94.1999L292.295 95.3374C318.133 100.537 340.233 90.4624 350.795 68.8499C356.158 57.4749 356.32 39.7624 350.958 27.7374C346.245 17.1749 334.058 5.96237 323.658 2.38737C314.883 -0.537631 297.008 -0.862631 289.858 1.89987ZM322.195 26.4374C329.833 32.1249 332.92 38.4624 332.92 48.0499C332.92 73.2374 303.508 84.7749 286.608 66.2499C280.108 58.9374 278.645 54.2249 279.62 44.4749C281.895 24.3249 306.108 14.0874 322.195 26.4374ZM51.145 84.9374C60.245 94.0374 58.295 106.875 46.595 112.887C37.495 117.6 26.9325 112.725 22.7075 102C18.645 91.2749 27.745 79.5749 40.2575 79.4124C44.32 79.4124 47.0825 80.8749 51.145 84.9374ZM200.158 169.437C210.883 172.687 219.82 180.487 224.858 190.725C235.258 211.85 226.645 236.387 205.358 246.137C170.583 262.387 134.67 225.337 151.733 190.725C160.67 172.2 180.495 163.587 200.158 169.437ZM333.895 217.375C351.77 228.262 335.52 257.35 316.995 247.762C310.17 244.187 306.92 239.15 306.92 231.675C306.92 226.637 308.058 224.2 312.445 219.812C318.945 213.312 325.933 212.5 333.895 217.375ZM87.87 329.662C95.995 331.937 103.633 338.6 107.208 346.725C119.395 373.537 88.845 400.187 63.6575 384.587C47.245 374.512 44.645 351.437 58.295 337.787C66.9075 329.175 76.495 326.575 87.87 329.662ZM307.895 353.225C322.195 362.487 321.22 384.1 305.945 392.387C297.82 396.937 286.445 394.825 279.783 387.512C273.77 380.85 271.983 375.812 273.445 368.012C276.37 352.412 294.733 344.612 307.895 353.225Z" fill="#C1C1C1"/>
</svg>
