<svg width="42" height="126" viewBox="0 0 42 126" fill="none" xmlns="http://www.w3.org/2000/svg">
<path d="M7.70445 1.8625C2.36539 4.47969 -0.251798 9.71406 0.376327 16.2047C0.795077 20.6016 1.4232 22.0672 4.66852 24.9984C7.91383 28.0344 9.17008 28.4531 14.0904 28.4531C23.3029 28.4531 29.0607 22.0672 28.0138 13.0641C26.967 3.22344 16.6029 -2.42969 7.70445 1.8625Z" fill="#C1C1C1"/>
<path d="M2.15625 71.6891C2.15625 109.586 2.575 112.936 8.01875 118.798C11.7875 122.881 15.8703 124.661 22.8844 125.394C34.4 126.65 41.9375 120.997 41.9375 111.261V106.969L37.4359 107.597C33.9812 108.12 32.5156 107.806 30.4219 106.131L27.8047 104.038L27.4906 70.4328L27.1766 36.8281H14.6141H2.15625V71.6891Z" fill="#C1C1C1"/>
</svg>
