<svg width="11" height="10" viewBox="0 0 11 10" fill="none" xmlns="http://www.w3.org/2000/svg">
<path d="M2.41958 0.215396C1.38528 0.415375 0.533786 1.18196 0.195694 2.22031C0.0704749 2.59976 0.0304048 2.86127 0.0304048 3.30482C0.0279004 3.74323 0.0604574 3.95347 0.19319 4.36368C0.648987 5.77122 2.15913 7.41464 4.41307 8.96063C5.00411 9.36572 5.06672 9.39136 5.48745 9.39392C5.9157 9.39392 6.00586 9.36059 6.58938 8.95807C8.82579 7.4249 10.351 5.76353 10.8068 4.36624C10.937 3.96628 10.972 3.74323 10.9695 3.30482C10.9695 2.86384 10.932 2.61002 10.8068 2.22031C10.5413 1.38707 9.88014 0.671759 9.09376 0.369226C8.75066 0.235907 8.56283 0.200013 8.15462 0.18463C7.59113 0.16412 7.18292 0.253854 6.71961 0.494854C6.32141 0.702524 5.88815 1.06402 5.59264 1.43322L5.49997 1.54859L5.40982 1.43322C5.09426 1.03582 4.57586 0.623046 4.15011 0.430758C3.75943 0.253854 3.49647 0.19745 3.02064 0.187194C2.73514 0.182066 2.54731 0.189758 2.41958 0.215396Z" fill="#C1C1C1"/>
</svg>
