<svg width="330" height="283" viewBox="0 0 330 283" fill="none" xmlns="http://www.w3.org/2000/svg">
<path d="M10.6031 2.98218C3.53438 7.40015 0 14.0271 0 23.5994C0 38.3259 8.83594 47.1619 23.5625 47.1619C38.2891 47.1619 47.125 38.3259 47.125 23.5994C47.125 14.0271 43.5906 7.40015 36.5219 2.98218C29.8949 -0.993995 17.2301 -0.993995 10.6031 2.98218Z" fill="#C1C1C1"/>
<path d="M104.853 2.98218C97.7844 7.40015 94.25 14.0271 94.25 23.5994C94.25 33.1716 97.7844 39.7986 104.853 44.2166C109.566 47.0146 112.511 47.1619 212.063 47.1619C311.614 47.1619 314.559 47.0146 319.272 44.2166C326.341 39.7986 329.875 33.1716 329.875 23.5994C329.875 14.0271 326.341 7.40015 319.272 2.98218C314.559 0.18413 311.614 0.0368643 212.063 0.0368643C112.511 0.0368643 109.566 0.18413 104.853 2.98218Z" fill="#C1C1C1"/>
<path d="M10.6031 120.795C3.53438 125.213 0 131.84 0 141.412C0 150.984 3.53438 157.611 10.6031 162.029C17.2301 166.005 29.8949 166.005 36.5219 162.029C43.5906 157.611 47.125 150.984 47.125 141.412C47.125 131.84 43.5906 125.213 36.5219 120.795C29.8949 116.819 17.2301 116.819 10.6031 120.795Z" fill="#C1C1C1"/>
<path d="M104.853 120.795C97.7844 125.213 94.25 131.84 94.25 141.412C94.25 150.984 97.7844 157.611 104.853 162.029C109.566 164.827 112.511 164.974 212.063 164.974C311.614 164.974 314.559 164.827 319.272 162.029C326.341 157.611 329.875 150.984 329.875 141.412C329.875 131.84 326.341 125.213 319.272 120.795C314.559 117.997 311.614 117.849 212.063 117.849C112.511 117.849 109.566 117.997 104.853 120.795Z" fill="#C1C1C1"/>
<path d="M10.6031 238.607C3.53438 243.025 0 249.652 0 259.224C0 273.951 8.83594 282.787 23.5625 282.787C38.2891 282.787 47.125 273.951 47.125 259.224C47.125 249.652 43.5906 243.025 36.5219 238.607C29.8949 234.631 17.2301 234.631 10.6031 238.607Z" fill="#C1C1C1"/>
<path d="M104.853 238.607C97.7844 243.025 94.25 249.652 94.25 259.224C94.25 268.797 97.7844 275.424 104.853 279.842C109.566 282.64 112.511 282.787 212.063 282.787C311.614 282.787 314.559 282.64 319.272 279.842C326.341 275.424 329.875 268.797 329.875 259.224C329.875 249.652 326.341 243.025 319.272 238.607C314.559 235.809 311.614 235.662 212.063 235.662C112.511 235.662 109.566 235.809 104.853 238.607Z" fill="#C1C1C1"/>
</svg>
