<svg width="103" height="103" viewBox="0 0 103 103" fill="none" xmlns="http://www.w3.org/2000/svg">
<path d="M8.32688 0.793728C4.32649 2.19646 0.897587 6.24881 0.326103 10.0933C0.170243 11.2883 0.0663372 30.7187 0.170243 53.3183C0.326103 98.7773 0.11829 95.6082 3.75501 99.2449C7.23587 102.726 6.76829 102.674 27.2898 102.83C47.4995 102.986 47.9152 102.934 50.2011 100.232C51.7597 98.3617 51.9675 94.3094 50.6687 92.0234C48.8503 88.9582 48.4866 88.9062 30.5109 88.9062H14.0937V51.5V14.0937H30.5109C48.4866 14.0937 48.8503 14.0418 50.6687 10.9765C51.8636 8.84646 51.7597 4.69021 50.4089 2.97576C48.123 0.118338 47.9152 0.0663847 28.2769 0.0663847C14.7691 0.118338 9.72962 0.274197 8.32688 0.793728Z" fill="#C1C1C1"/>
<path d="M69.9434 22.4062C68.7484 22.9777 67.4496 24.1207 66.9301 24.952C65.943 26.6664 65.7871 30.2512 66.6184 31.9137C66.9301 32.5371 69.6836 35.5504 72.6969 38.6156L78.2559 44.2266H56.7992C33.6281 44.2266 33.3164 44.2785 30.7188 47.084C29.6277 48.227 29.4199 49.0062 29.4199 51.5C29.4199 53.9937 29.6277 54.773 30.7188 55.916C33.3164 58.7215 33.6281 58.7734 56.7992 58.7734H78.2559L72.6969 64.3324C69.6836 67.4496 66.9301 70.4629 66.6184 71.0863C65.7871 72.7488 65.943 76.3336 66.9301 78.048C67.8652 79.6066 71.2941 81.6328 73.0605 81.6328C75.6582 81.6328 78.8273 79.0352 90.309 67.4496C107.142 50.5129 107.142 52.4871 90.309 35.5504C75.918 21.0035 74.5152 20.1203 69.9434 22.4062Z" fill="#C1C1C1"/>
</svg>
