<svg width="284" height="238" viewBox="0 0 284 238" fill="none" xmlns="http://www.w3.org/2000/svg">
<path d="M225.758 16.2719C203.237 24.925 145.106 47.2234 96.6266 65.8609C44.9297 85.6078 6.76719 100.806 4.21562 102.581C0.776562 105.133 0 106.353 0 109.348C0 111.789 0.8875 113.897 2.6625 115.561C5.65781 118.334 71.2219 139.302 74.8828 138.636C76.1031 138.414 110.494 117.336 151.208 91.9312C192.033 66.4156 226.867 45.0047 228.642 44.339C230.972 43.4515 232.192 43.4515 233.08 44.339C233.856 45.1156 217.881 60.2031 175.281 98.4766C142.887 127.542 115.153 152.503 113.6 153.723C110.937 156.164 110.827 156.83 108.497 189.223C107.277 207.417 106.5 222.616 106.944 222.948C107.277 223.281 109.495 223.059 111.714 222.394C114.709 221.506 120.922 216.292 133.68 204.089L151.43 187.005L181.383 209.081C197.912 221.173 213.887 232.6 216.883 234.375C227.089 240.366 235.409 238.147 238.959 228.495C242.398 219.62 284 21.5969 284 14.4969C284 8.3953 283.667 7.50781 280.228 4.06875C274.127 -2.03282 272.241 -1.70002 225.758 16.2719Z" fill="#C1C1C1"/>
</svg>
