<svg width="25" height="28" viewBox="0 0 25 28" fill="none" xmlns="http://www.w3.org/2000/svg">
<path d="M11.0296 0.107256C9.67931 0.408058 8.51621 1.06982 7.54696 2.10592C7.00551 2.6741 6.7515 3.03506 6.41728 3.7102C4.82637 6.91875 5.98947 10.8492 9.05765 12.6273C11.2903 13.9174 14.071 13.8506 16.2234 12.4468C19.7462 10.1474 20.3478 5.1741 17.4734 2.11929C16.8518 1.45752 16.2702 1.0364 15.4748 0.648701C14.4654 0.154048 13.944 0.0337267 12.6673 0.00698948C11.805 -0.0130644 11.4908 0.00698948 11.0296 0.107256Z" fill="#C1C1C1"/>
<path d="M7.41979 15.6688C5.52139 15.8827 3.90374 16.6313 2.56016 17.9081C0.92246 19.4789 0 21.5912 0 23.777C0 25.3345 0.795455 26.6915 2.08556 27.3466C3.01471 27.8145 2.33957 27.7877 12.4933 27.7877C22.5201 27.7877 22.0321 27.8078 22.8209 27.4067C23.5495 27.0391 24.2447 26.3506 24.6123 25.6287C24.8396 25.1741 25 24.3987 25 23.7436C25 20.4147 22.7741 17.2797 19.5856 16.1233C19.3115 16.023 18.8168 15.8827 18.4826 15.8024C17.9011 15.6688 17.6938 15.6621 12.7674 15.6487C9.95321 15.642 7.54679 15.6487 7.41979 15.6688Z" fill="#C1C1C1"/>
</svg>
